<mxfile host="app.diagrams.net" modified="2021-11-30T16:04:10.317Z" agent="5.0 (Macintosh; Intel Mac OS X 10_15_1) AppleWebKit/537.36 (KHTML, like Gecko) Chrome/93.0.4577.82 Safari/537.36" etag="LVmkF74qqbvaOYNiI2jc" version="15.8.7" type="github">
  <diagram id="jcTb2oQmvnfJv52Dtta2" name="Page-1">
    <mxGraphModel dx="946" dy="511" grid="1" gridSize="10" guides="1" tooltips="1" connect="1" arrows="1" fold="1" page="1" pageScale="1" pageWidth="850" pageHeight="1100" math="0" shadow="0">
      <root>
        <mxCell id="0" />
        <mxCell id="1" parent="0" />
        <mxCell id="hYwClQG9UGKybYTTV1sZ-9" value="Inventory" style="swimlane;fontStyle=1;align=center;verticalAlign=top;childLayout=stackLayout;horizontal=1;startSize=26;horizontalStack=0;resizeParent=1;resizeParentMax=0;resizeLast=0;collapsible=1;marginBottom=0;" parent="1" vertex="1">
          <mxGeometry x="320" y="160" width="200" height="180" as="geometry" />
        </mxCell>
        <mxCell id="hYwClQG9UGKybYTTV1sZ-10" value="connection" style="text;strokeColor=none;fillColor=none;align=left;verticalAlign=top;spacingLeft=4;spacingRight=4;overflow=hidden;rotatable=0;points=[[0,0.5],[1,0.5]];portConstraint=eastwest;" parent="hYwClQG9UGKybYTTV1sZ-9" vertex="1">
          <mxGeometry y="26" width="200" height="26" as="geometry" />
        </mxCell>
        <mxCell id="hYwClQG9UGKybYTTV1sZ-11" value="" style="line;strokeWidth=1;fillColor=none;align=left;verticalAlign=middle;spacingTop=-1;spacingLeft=3;spacingRight=3;rotatable=0;labelPosition=right;points=[];portConstraint=eastwest;" parent="hYwClQG9UGKybYTTV1sZ-9" vertex="1">
          <mxGeometry y="52" width="200" height="8" as="geometry" />
        </mxCell>
        <mxCell id="hYwClQG9UGKybYTTV1sZ-12" value="displayAll()&#xa;displayByGenre()&#xa;displayByFormat()&#xa;displayByPrice(min: float, max: float)&#xa;displayGenres()&#xa;displayFormats()&#xa;retrieveBook(ISBN: int)&#xa;update(ISBN: int, quantity: int)&#xa;" style="text;strokeColor=none;fillColor=none;align=left;verticalAlign=top;spacingLeft=4;spacingRight=4;overflow=hidden;rotatable=0;points=[[0,0.5],[1,0.5]];portConstraint=eastwest;" parent="hYwClQG9UGKybYTTV1sZ-9" vertex="1">
          <mxGeometry y="60" width="200" height="120" as="geometry" />
        </mxCell>
      </root>
    </mxGraphModel>
  </diagram>
</mxfile>
